<svg width="109" height="64" viewBox="0 -14 109 64" fill="none" xmlns="http://www.w3.org/2000/svg"><path d="M41.7479 13.8381C40.9022 13.8381 40.2673 14.058 39.8574 14.4913C39.4811 14.8899 39.2483 15.5044 39.1656 16.3196H44.3613C44.2798 15.4697 44.0535 14.8461 43.685 14.463C43.2854 14.049 42.6337 13.8381 41.7479 13.8381Z" fill="#1A1A1A"/><path d="M93.595 19.2574C93.1825 18.9025 92.5204 18.7213 91.6256 18.7213C90.7307 18.7213 90.0738 18.9025 89.6562 19.2574C89.4659 19.4307 89.314 19.6415 89.2101 19.8764C89.1061 20.1112 89.0524 20.365 89.0524 20.6216C89.0524 20.8781 89.1061 21.1319 89.2101 21.3667C89.314 21.6016 89.4659 21.8124 89.6562 21.9857C90.0674 22.3406 90.7295 22.5219 91.6256 22.5219C92.5217 22.5219 93.1889 22.3406 93.595 21.9857C93.7852 21.8124 93.9372 21.6016 94.0411 21.3667C94.145 21.1319 94.1987 20.8781 94.1987 20.6216C94.1987 20.365 94.145 20.1112 94.0411 19.8764C93.9372 19.6415 93.7852 19.4307 93.595 19.2574Z" fill="#1A1A1A"/><path fill-rule="evenodd" clip-rule="evenodd" d="M10.4483 0H98.3794C101.123 0 103.754 1.08367 105.694 3.01262C107.634 4.94156 108.724 7.55777 108.724 10.2857V25.7143C108.724 28.4422 107.634 31.0584 105.694 32.9874C103.754 34.9163 101.123 36 98.3794 36H10.4483C7.70473 36 5.07348 34.9163 3.13344 32.9874C1.19341 31.0584 0.103516 28.4422 0.103516 25.7143V10.2857C0.103516 7.55777 1.19341 4.94156 3.13344 3.01262C5.07348 1.08367 7.70473 0 10.4483 0ZM27.966 25.9714H32.4001V10.0286H10.1897V25.9714H14.6238V14.1429H19.0785V25.9714H23.5087V14.1429H27.966V25.9714ZM39.2845 19.6804H48.8225L48.8173 17.6824C48.8173 15.237 48.2522 13.284 47.1363 11.8761C46.0048 10.449 44.2126 9.72643 41.8113 9.72643C39.366 9.72643 37.544 10.4901 36.3919 11.9996C35.2578 13.4859 34.6824 15.5096 34.6824 18.0116C34.6824 20.1921 35.2604 22.1259 36.4009 23.76C37.5621 25.4237 39.7462 26.2671 42.8962 26.2671C43.663 26.2671 44.382 26.2363 45.0285 26.1759C45.8925 26.0785 46.7493 25.9269 47.594 25.722L47.7945 25.6757V21.6154L47.4789 21.6849C46.7204 21.8605 45.9517 21.9893 45.1772 22.0706C44.5345 22.1297 43.8686 22.1593 43.1975 22.1593C41.8358 22.1593 40.857 21.9304 40.2841 21.4804C39.7785 21.0857 39.4423 20.4801 39.2845 19.6804ZM60.6634 16.8339H65.082V16.5716C65.096 15.3752 64.8168 14.1935 64.2686 13.1284C63.7206 12.085 62.8802 11.2217 61.8492 10.6431C60.7889 10.0337 59.5087 9.72514 58.0436 9.72514C55.6449 9.72514 53.7789 10.4979 52.5285 11.9893C51.2781 13.4807 50.6445 15.4941 50.6445 17.9807C50.6445 20.4673 51.2664 22.4781 52.5272 23.9863C53.788 25.4944 55.6436 26.2659 58.0436 26.2659C59.5087 26.2659 60.7889 25.9573 61.8492 25.3479C62.8803 24.7689 63.721 23.9058 64.2699 22.8626C64.8171 21.7968 65.0958 20.6147 65.082 19.4181V19.161H60.6621L60.6466 19.4027C60.5897 20.3246 60.3802 21.0279 60.022 21.4933C59.6833 21.9343 59.038 22.1567 58.1031 22.1567C56.9354 22.1567 56.1363 21.8481 55.7276 21.2374C55.2996 20.5959 55.0811 19.4991 55.0811 17.9807C55.0811 16.4623 55.297 15.372 55.7276 14.7394C56.1363 14.1429 56.9406 13.8394 58.1044 13.8394C59.0393 13.8394 59.6846 14.0619 60.0233 14.5016C60.3815 14.967 60.591 15.6716 60.6479 16.5934L60.6634 16.8339ZM77.757 25.9714H82.191V10.0286H71.9471V4.48714H67.513V25.9714H71.9471V14.1429H77.757V25.9714ZM94.2039 25.9714H100.597V21.7119H98.638V10.0286H86.3703V13.9847H94.2052V16.299C93.8571 15.9416 93.4449 15.6521 92.9897 15.4453C92.3044 15.1316 91.3914 14.9721 90.2742 14.9721C89.0664 14.9721 88.0229 15.237 87.1708 15.759C86.3429 16.2558 85.6766 16.9794 85.2518 17.8431C84.8379 18.7116 84.6233 19.6606 84.6233 20.6216C84.6233 21.5826 84.8379 22.5316 85.2518 23.4C85.6766 24.2637 86.3429 24.9873 87.1708 25.4841C88.0229 26.0061 89.0664 26.271 90.2742 26.271C91.372 26.271 92.2811 26.1064 92.9755 25.7824C93.4324 25.5721 93.8483 25.2831 94.2039 24.9287V25.9714Z" fill="#1A1A1A"/></svg>
