<?xml version="1.0" standalone="no"?>
<!DOCTYPE svg PUBLIC "-//W3C//DTD SVG 20010904//EN"
 "http://www.w3.org/TR/2001/REC-SVG-20010904/DTD/svg10.dtd">
<svg version="1.0" xmlns="http://www.w3.org/2000/svg"
 width="2000.000000pt" height="2000.000000pt" viewBox="0 0 2000.000000 2000.000000"
 preserveAspectRatio="xMidYMid meet">
<metadata>
Created by potrace 1.14, written by Peter Selinger 2001-2017
</metadata>
<g transform="translate(0.000000,2000.000000) scale(0.100000,-0.100000)"
fill="#000000" stroke="none">
<path d="M9877 16614 c-1 -1 -81 -4 -177 -8 -96 -3 -186 -8 -200 -10 -14 -2
-63 -7 -110 -10 -47 -4 -116 -11 -155 -16 -38 -5 -90 -12 -115 -15 -57 -7
-227 -33 -260 -40 -14 -3 -50 -9 -80 -15 -57 -9 -84 -15 -135 -27 -16 -3 -37
-7 -45 -9 -8 -1 -46 -9 -85 -19 -38 -9 -79 -19 -90 -21 -27 -5 -282 -77 -370
-104 -38 -12 -74 -23 -80 -24 -5 -2 -19 -6 -30 -10 -11 -5 -31 -12 -45 -16
-127 -42 -346 -126 -447 -171 -24 -11 -45 -19 -47 -19 -2 0 -38 -16 -80 -35
-42 -19 -80 -35 -84 -37 -27 -7 -414 -210 -537 -283 -140 -82 -381 -237 -520
-335 -116 -82 -400 -307 -475 -376 -19 -17 -66 -60 -105 -95 -121 -108 -304
-289 -410 -404 -20 -22 -51 -56 -69 -75 -26 -28 -188 -220 -275 -325 -65 -79
-243 -328 -333 -465 -234 -358 -425 -720 -582 -1106 -46 -113 -66 -150 -104
-190 -58 -62 -265 -284 -316 -341 l-39 -42 -966 -3 -966 -3 -55 -25 c-113 -50
-198 -131 -261 -249 -13 -24 -29 -51 -34 -60 -6 -9 -31 -51 -55 -94 -25 -43
-49 -86 -55 -95 -13 -23 -97 -168 -123 -212 -11 -19 -61 -107 -112 -195 -243
-419 -277 -489 -334 -691 -38 -134 -50 -222 -50 -354 0 -182 29 -326 106 -525
45 -116 92 -205 238 -455 37 -63 79 -135 92 -160 44 -77 170 -293 195 -332 12
-21 23 -40 23 -42 0 -2 21 -40 46 -83 26 -43 58 -98 72 -123 28 -52 87 -128
116 -150 62 -48 107 -73 165 -92 65 -21 76 -21 973 -22 804 -1 910 -3 925 -17
10 -8 38 -37 62 -65 24 -27 90 -98 146 -159 57 -60 117 -126 135 -145 18 -19
53 -57 79 -85 26 -27 58 -66 71 -85 14 -19 30 -42 37 -50 65 -80 167 -229 198
-290 330 -642 733 -1196 1234 -1697 80 -80 130 -127 301 -283 32 -29 48 -42
155 -131 396 -326 813 -595 1277 -824 186 -92 469 -214 628 -270 58 -20 114
-41 125 -45 68 -29 487 -152 593 -175 209 -45 354 -75 382 -79 19 -3 44 -7 55
-10 11 -2 41 -6 66 -10 25 -4 57 -9 70 -11 41 -7 92 -14 144 -20 28 -3 65 -8
83 -11 19 -2 66 -7 105 -10 40 -3 88 -7 107 -9 172 -19 715 -25 915 -11 219
15 310 23 365 31 14 2 50 6 80 9 30 4 64 8 75 10 11 2 43 7 70 10 45 6 125 19
181 30 12 2 39 7 60 10 21 4 99 20 174 37 74 17 146 32 160 35 14 3 33 7 42
10 9 3 25 7 35 9 203 43 749 230 965 329 31 14 60 26 64 26 18 0 467 229 606
309 523 301 938 620 1368 1050 249 249 305 311 524 581 6 9 32 42 56 75 25 33
53 69 62 80 32 38 272 390 294 430 6 11 29 49 51 86 68 109 176 305 247 444
39 78 247 361 327 445 34 36 87 92 118 126 31 33 99 108 153 165 53 58 105
116 116 129 l20 25 908 1 c500 1 920 4 933 8 169 41 244 105 362 310 45 77 90
153 100 168 11 15 19 29 19 31 0 3 88 157 196 343 108 187 218 381 245 433
145 282 206 566 177 824 -21 189 -103 432 -204 607 -17 30 -43 75 -56 100 -33
59 -280 485 -307 530 -11 19 -24 42 -28 50 -3 8 -14 26 -23 40 -10 14 -28 45
-42 70 -154 275 -208 344 -304 393 -117 59 -72 57 -1100 57 l-942 0 -84 91
c-105 114 -165 178 -237 254 -71 74 -92 106 -115 170 -17 48 -41 104 -109 260
-40 89 -213 436 -248 495 -15 25 -60 100 -100 168 -41 68 -79 131 -84 141 -15
27 -139 215 -145 221 -3 3 -32 43 -65 90 -32 47 -85 119 -117 160 -32 41 -68
88 -81 105 -12 16 -57 71 -100 123 -158 189 -208 243 -412 447 -190 190 -242
239 -340 320 -33 28 -64 55 -70 61 -5 6 -55 47 -110 90 -55 43 -102 81 -105
84 -3 3 -54 42 -115 86 -643 470 -1318 804 -2070 1022 -157 46 -427 112 -525
128 -14 2 -45 9 -70 14 -25 5 -61 12 -80 15 -19 3 -60 10 -90 15 -30 6 -76 12
-101 15 -26 3 -57 8 -69 10 -12 2 -48 7 -79 10 -31 3 -65 8 -76 10 -11 2 -56
7 -100 10 -44 3 -95 8 -113 10 -93 10 -636 27 -645 19z"/>
</g>
</svg>
