<svg width="851" height="125" viewBox="0 0 851 125" fill="none" xmlns="http://www.w3.org/2000/svg">
<path d="M850.031 62.5C850.031 50.8836 850.031 45.0754 849.071 40.2455C845.125 20.411 829.62 4.90607 809.786 0.960736C804.956 0 799.148 0 787.531 0H33.8359C15.1747 0 0.046875 15.1279 0.046875 33.7891C0.046875 52.4502 15.1747 67.5781 33.8359 67.5781H345.759C363.955 67.5781 373.053 67.5781 381.409 70.6517C389.766 73.7253 396.695 79.6205 410.555 91.4109L422.023 101.167C435.883 112.958 442.813 118.853 451.169 121.926C459.525 125 468.624 125 486.82 125H787.531C799.148 125 804.956 125 809.786 124.039C829.62 120.094 845.125 104.589 849.071 84.7545C850.031 79.9246 850.031 74.1164 850.031 62.5Z" fill="#2AD19D" fill-opacity="0.1"/>
<path d="M850.031 58.7181C850.031 50.6201 850.031 46.571 849.563 43.1742C846.504 20.9781 829.053 3.52686 806.857 0.468107C803.46 0 799.411 0 791.313 0H31.7913C14.2593 0 0.046875 14.2125 0.046875 31.7445C0.046875 49.2765 14.2593 63.4889 31.7913 63.4889H350.484C366.381 63.4889 374.33 63.4889 381.775 65.8755C389.22 68.262 395.687 72.8832 408.622 82.1256L431.957 98.7996C444.891 108.042 451.359 112.663 458.804 115.05C466.249 117.436 474.197 117.436 490.095 117.436H791.313C799.411 117.436 803.46 117.436 806.857 116.968C829.053 113.909 846.504 96.4581 849.563 74.262C850.031 70.8651 850.031 66.8161 850.031 58.7181Z" fill="white"/>
</svg>
