<svg width="81" height="81" viewBox="0 0 81 81" fill="none" xmlns="http://www.w3.org/2000/svg">
<rect x="0.445068" y="0.643555" width="80" height="80" rx="10" fill="#F6F6F6"/>
<path d="M43.566 23.166L43.0721 23.0512C42.7723 22.9815 42.5301 22.7643 42.456 22.4985L42.3337 22.0605L42.1803 22.472C42.0961 22.6983 41.832 22.9541 41.5937 23.0407L41.1602 23.1978L41.5929 23.3121C41.8306 23.375 42.0883 23.5992 42.1655 23.81C42.29 24.1511 42.316 24.1581 42.4012 23.8724C42.454 23.6957 42.7376 23.4646 43.0316 23.3587L43.566 23.166Z" fill="#2AD19D"/>
<path d="M31.2969 27.6353C31.5243 27.4469 31.5287 27.3605 31.3206 27.176C31.0094 26.9001 30.9964 26.9008 30.6932 27.2067C30.3348 27.5685 30.8961 27.9672 31.2969 27.6353Z" fill="#2AD19D"/>
<path d="M54.7632 27.8052C54.9829 27.6232 54.9855 27.5382 54.7774 27.3537C54.4691 27.0803 54.4508 27.0807 54.1736 27.3621C53.84 27.7009 54.3899 28.1143 54.7632 27.8052Z" fill="#2AD19D"/>
<path d="M40.7592 32.1037C41.1452 31.8198 41.1961 28.3849 40.8194 28.0509C40.6871 27.9336 40.5247 27.8376 40.4585 27.8376C40.0116 27.8376 39.8571 28.4119 39.8571 30.0734C39.8571 31.4645 39.9264 31.9336 40.1578 32.1037C40.3978 32.2802 40.5193 32.2802 40.7592 32.1037Z" fill="#2AD19D"/>
<path d="M35.7605 32.581C35.9049 32.2475 34.8694 28.8565 34.5706 28.6846C34.2442 28.4969 34.1217 28.517 33.8551 28.8019C33.6693 29.0001 33.741 29.4527 34.1861 30.8905C34.6745 32.469 34.8166 32.7338 35.2014 32.7827C35.456 32.8151 35.6968 32.7283 35.7605 32.581Z" fill="#2AD19D"/>
<path d="M46.7309 30.8905C47.176 29.4527 47.2478 29.0001 47.0619 28.8019C46.5084 28.2105 46.1874 28.5937 45.5819 30.5688C44.9993 32.4697 45.0236 32.8707 45.7157 32.7827C46.1004 32.7338 46.2425 32.469 46.7309 30.8905Z" fill="#2AD19D"/>
<path d="M19.6623 30.5546L19.1478 30.4401C18.8309 30.3695 18.5993 30.172 18.5446 29.9258L18.456 29.5262L18.3128 29.9059C18.2342 30.1148 17.9746 30.3702 17.736 30.4739L17.3024 30.6621L17.735 30.7771C17.9728 30.8404 18.2262 31.0649 18.298 31.2757C18.4195 31.6332 18.4385 31.6369 18.5773 31.329C18.6593 31.1474 18.9369 30.8987 19.1942 30.7766L19.6623 30.5546Z" fill="#2AD19D"/>
<path d="M30.3721 34.5572C31.1844 34.6634 31.0736 34.0601 29.9735 32.3922C28.8859 30.743 28.4141 30.3983 28.056 30.9913C27.7842 31.4417 29.7552 34.4767 30.3721 34.5572Z" fill="#2AD19D"/>
<path d="M50.5488 34.5572C51.1611 34.478 53.2102 31.2917 52.8774 30.9364C52.5332 30.5686 52.1372 30.6228 51.815 31.0816C49.9391 33.7522 49.6011 34.6799 50.5488 34.5572Z" fill="#2AD19D"/>
<path d="M62.1812 33.4934C62.4009 33.3113 62.4035 33.2264 62.1954 33.0419C61.8871 32.7685 61.8688 32.7688 61.5915 33.0502C61.2579 33.389 61.8079 33.8025 62.1812 33.4934Z" fill="#2AD19D"/>
<path d="M52.036 36.7593C50.4688 35.6876 47.8067 34.4972 45.7714 33.9578C44.2399 33.552 43.5121 33.4703 40.9597 33.4176C36.9486 33.3346 34.883 33.7369 31.6887 35.2229C27.5576 37.1446 24.3769 40.3028 22.7013 44.1466L22.1395 45.4353H14.0509C6.72994 45.4353 5.95025 45.463 5.83577 45.7277C5.49074 46.5249 4.45904 46.5018 40.2833 46.5018C61.7796 46.5018 74.3016 46.4385 74.6283 46.3285C75.1436 46.1548 75.3136 45.7277 74.9475 45.5272C74.8401 45.4683 71.1547 45.4252 66.7577 45.4312L58.7631 45.4422L58.1081 43.94C56.9513 41.2872 54.6124 38.5212 52.036 36.7593Z" fill="#2AD19D"/>
<path d="M26.7072 37.1471C26.8523 36.8119 26.7549 36.6963 25.0526 35.1867C23.8446 34.1153 23.4537 33.9081 23.15 34.1775C22.8103 34.4785 23.1225 34.9454 24.4647 36.1433C25.9155 37.4383 26.4732 37.688 26.7072 37.1471Z" fill="#2AD19D"/>
<path d="M54.6694 37.4363C55.1864 37.4363 57.9543 34.8813 57.8679 34.4836C57.7246 33.8229 57.1089 34.0209 55.7744 35.1566C55.0479 35.775 54.3724 36.4151 54.2732 36.5792C54.0354 36.9726 54.2497 37.4363 54.6694 37.4363Z" fill="#2AD19D"/>
<path d="M70.199 37.5312C70.6022 37.4235 70.6064 37.4066 70.2592 37.2836C70.0543 37.2109 69.7698 36.9582 69.6272 36.7219L69.3678 36.2923L69.298 36.7237C69.2517 37.0095 69.0591 37.1919 68.727 37.2644L68.2258 37.3736L68.69 37.5096C68.9452 37.5842 69.2337 37.8183 69.3313 38.0297L69.5085 38.414L69.6375 38.0304C69.7084 37.8196 69.9612 37.5949 70.199 37.5312Z" fill="#2AD19D"/>
<path d="M8.9822 39.3157C8.9822 39.1764 9.11412 39.0363 9.27551 39.0047C9.49705 38.9613 9.44793 38.8447 9.07503 38.5286C8.71295 38.2216 8.58123 38.1809 8.58123 38.3763C8.58123 38.5228 8.4439 38.6893 8.27589 38.7464C8.01726 38.8344 8.0325 38.9051 8.37613 39.2098C8.8563 39.6355 8.9822 39.6575 8.9822 39.3157Z" fill="#2AD19D"/>
<path d="M23.3961 40.9251C23.7813 40.5136 23.4769 40.2248 21.7331 39.3472C19.9654 38.4577 19.4662 38.3382 19.2832 38.761C19.1096 39.1621 19.309 39.3264 21.1288 40.2793C22.998 41.2582 23.0661 41.2776 23.3961 40.9251Z" fill="#2AD19D"/>
<path d="M59.7958 40.2667C61.3616 39.4999 61.7162 39.2517 61.6685 38.9561C61.5713 38.353 60.9007 38.4579 59.1623 39.3484C57.4086 40.2468 57.1127 40.5465 57.5744 40.9559C57.827 41.1798 58.1113 41.0917 59.7958 40.2667Z" fill="#2AD19D"/>
<path d="M13.6435 42.0546C13.3953 41.965 13.1924 41.7691 13.1924 41.6192C13.1924 41.4696 13.1022 41.3469 12.9919 41.3469C12.8817 41.3469 12.7914 41.4653 12.7914 41.6102C12.7914 41.7549 12.5537 41.9264 12.2632 41.9909L11.7347 42.1086L12.2028 42.3306C12.46 42.4527 12.7377 42.7014 12.8197 42.8831C12.9584 43.191 12.9775 43.1872 13.099 42.8298C13.1708 42.6189 13.4242 42.3948 13.6619 42.3319L14.0946 42.2176L13.6435 42.0546Z" fill="#2AD19D"/>
<path d="M65.419 42.8141L64.9908 42.6872C64.7552 42.6175 64.4753 42.3873 64.3689 42.1758L64.175 41.7913L64.0387 42.1721C63.9635 42.3815 63.7021 42.6056 63.4577 42.67L63.0132 42.7871L63.4691 42.9517C63.7197 43.0422 63.9988 43.2933 64.0892 43.51C64.251 43.8981 64.2554 43.897 64.3855 43.4377C64.4677 43.147 64.6875 42.9417 64.9683 42.8927L65.419 42.8141Z" fill="#2AD19D"/>
<path d="M74.7549 58.5829C75.2124 58.3657 75.2657 57.9089 74.8499 57.7674C74.5351 57.6602 32.3749 57.5816 15.9421 57.6575C7.27727 57.6977 5.94564 57.7389 5.8452 57.9709C5.78164 58.1179 5.84099 58.3572 5.97712 58.5026C6.19424 58.7345 10.3844 58.7669 40.2957 58.7669C63.3985 58.7669 74.4918 58.7077 74.7549 58.5829Z" fill="#2AD19D"/>
<path d="M57.8074 44.0661H23.0234C24.1781 39.9046 29.9947 31.1484 40.5598 31.1484C51.1248 31.1484 56.5565 39.9046 57.8074 44.0661Z" fill="#2AD19D"/>
<path d="M53.7505 44.0648H27.0811C27.9663 40.8741 32.426 34.1606 40.5264 34.1606C48.6268 34.1606 52.7914 40.8741 53.7505 44.0648Z" fill="#F6F6F6"/>
<path d="M11.7739 46.9898V56.2271H10.1005V46.9898H11.7739ZM17.616 46.9898L20.0201 54.2605H20.1148L22.5143 46.9898H24.3545L21.098 56.2271H19.0323L15.7803 46.9898H17.616ZM36.1233 51.6084C36.1233 52.6037 35.9369 53.4562 35.564 54.1658C35.1942 54.8724 34.689 55.4137 34.0485 55.7895C33.4111 56.1654 32.6879 56.3533 31.879 56.3533C31.0702 56.3533 30.3455 56.1654 29.705 55.7895C29.0676 55.4107 28.5624 54.8679 28.1896 54.1613C27.8197 53.4517 27.6348 52.6007 27.6348 51.6084C27.6348 50.6131 27.8197 49.7622 28.1896 49.0556C28.5624 48.3459 29.0676 47.8032 29.705 47.4273C30.3455 47.0515 31.0702 46.8635 31.879 46.8635C32.6879 46.8635 33.4111 47.0515 34.0485 47.4273C34.689 47.8032 35.1942 48.3459 35.564 49.0556C35.9369 49.7622 36.1233 50.6131 36.1233 51.6084ZM34.4409 51.6084C34.4409 50.9078 34.3312 50.317 34.1117 49.8359C33.8952 49.3517 33.5945 48.9864 33.2096 48.7398C32.8247 48.4903 32.3812 48.3655 31.879 48.3655C31.3769 48.3655 30.9334 48.4903 30.5485 48.7398C30.1636 48.9864 29.8614 49.3517 29.6419 49.8359C29.4254 50.317 29.3172 50.9078 29.3172 51.6084C29.3172 52.309 29.4254 52.9014 29.6419 53.3855C29.8614 53.8666 30.1636 54.232 30.5485 54.4815C30.9334 54.7281 31.3769 54.8514 31.879 54.8514C32.3812 54.8514 32.8247 54.7281 33.2096 54.4815C33.5945 54.232 33.8952 53.8666 34.1117 53.3855C34.3312 52.9014 34.4409 52.309 34.4409 51.6084ZM48.0905 46.9898V56.2271H46.6021L42.2496 49.9351H42.1729V56.2271H40.4996V46.9898H41.997L46.345 53.2863H46.4262V46.9898H48.0905ZM60.2991 46.9898V56.2271H58.8106L54.4581 49.9351H54.3815V56.2271H52.7081V46.9898H54.2056L58.5535 53.2863H58.6347V46.9898H60.2991ZM64.9166 56.2271V46.9898H70.9245V48.3925H66.59V50.9003H70.6132V52.303H66.59V54.8243H70.9605V56.2271H64.9166Z" fill="#2AD19D"/>
</svg>
