<?xml version="1.0" standalone="no"?>
<!DOCTYPE svg PUBLIC "-//W3C//DTD SVG 20010904//EN"
 "http://www.w3.org/TR/2001/REC-SVG-20010904/DTD/svg10.dtd">
<svg version="1.0" xmlns="http://www.w3.org/2000/svg"
 width="1024.000000pt" height="1024.000000pt" viewBox="0 0 1024.000000 1024.000000"
 preserveAspectRatio="xMidYMid meet">
<metadata>
Created by potrace 1.14, written by Peter Selinger 2001-2017
</metadata>
<g transform="translate(0.000000,1024.000000) scale(0.100000,-0.100000)"
fill="#000000" stroke="none">
<path d="M0 5120 l0 -5120 5120 0 5120 0 0 5120 0 5120 -5120 0 -5120 0 0
-5120z m3258 3924 c19 -13 22 -24 20 -57 -2 -33 -9 -44 -30 -56 -35 -20 -79
-5 -92 30 -24 70 43 124 102 83z m813 -2 c45 -37 16 -122 -41 -122 -31 0 -70
39 -70 71 0 59 64 88 111 51z m2987 2 c15 -10 22 -25 22 -48 0 -64 -55 -94
-103 -56 -51 41 -26 120 38 120 11 0 31 -7 43 -16z m-1928 -215 c0 -81 -2 -90
-17 -87 -15 3 -18 17 -21 91 -3 82 -2 87 18 87 19 0 20 -6 20 -91z m-1460 -19
l0 -100 149 0 c120 0 151 3 161 15 7 8 27 15 45 15 18 0 38 -7 45 -15 11 -13
165 -15 1271 -15 1192 0 1259 1 1260 18 1 9 1 54 -1 100 -2 77 -1 82 19 82 23
0 23 2 26 -115 l3 -80 151 -3 c123 -2 156 0 174 13 49 34 107 7 107 -50 0 -61
-60 -78 -109 -31 l-28 27 -149 -3 -149 -3 0 -147 -1 -148 354 0 353 0 -3 -22
-3 -23 -350 -3 -350 -2 3 -140 3 -140 345 0 344 0 0 -392 0 -393 565 3 565 3
0 -25 0 -26 -280 0 -280 0 0 -115 0 -115 280 0 c273 0 280 0 280 -20 0 -20 -7
-20 -280 -20 l-280 0 0 -395 0 -395 195 0 195 0 0 206 c0 191 -1 208 -20 231
-25 32 -25 44 1 77 25 31 61 34 89 6 27 -27 25 -66 -5 -94 l-25 -23 0 -692 0
-691 70 0 70 0 0 -30 0 -30 -70 0 -70 0 0 -611 0 -611 25 -20 c46 -36 22 -108
-36 -108 -52 0 -79 61 -43 101 12 13 16 46 17 153 l2 136 -197 0 -198 0 0
-395 0 -395 280 0 c273 0 280 -1 280 -20 0 -19 -8 -20 -277 -22 l-278 -3 -2
-117 -1 -117 31 -6 c18 -4 144 -5 280 -3 l247 3 0 -22 0 -23 -280 0 c-217 0
-280 -3 -280 -12 0 -10 -62 -12 -285 -10 l-285 3 0 -351 0 -350 -347 -2 -348
-3 -3 -142 -3 -143 350 0 c340 0 349 -1 354 -20 5 -19 -1 -20 -346 -22 l-352
-3 0 -125 c-2 -327 -3 -350 -25 -350 -19 0 -20 7 -20 240 l0 240 -735 0 -735
0 0 -106 c0 -95 -2 -105 -17 -102 -16 3 -18 17 -21 106 l-3 102 -709 0 -710 0
0 -240 c0 -233 -1 -240 -20 -240 -19 0 -20 7 -20 240 l0 240 -525 0 c-518 0
-525 0 -525 20 0 20 7 20 525 20 l525 0 0 145 0 145 -520 0 -520 0 0 350 0
350 -230 0 c-147 0 -230 4 -230 10 0 6 -100 10 -280 10 -273 0 -280 0 -280 20
0 19 7 20 228 20 125 0 251 3 280 6 l52 7 0 118 0 119 -280 0 c-273 0 -280 0
-280 20 0 20 7 20 280 20 l280 0 0 395 0 395 -195 0 -195 0 0 -133 c0 -121 2
-136 20 -152 39 -36 14 -105 -38 -105 -56 0 -83 68 -42 105 20 18 20 31 20
632 l0 613 -70 0 -70 0 0 30 0 30 70 0 70 0 0 698 c0 692 0 698 -21 715 -29
26 -23 77 14 97 24 13 30 13 55 0 35 -20 41 -66 12 -99 -19 -23 -20 -37 -20
-228 l0 -203 195 0 195 0 0 395 0 395 -275 0 c-268 0 -275 0 -275 20 0 20 7
20 275 20 l275 0 0 115 0 115 -280 0 -280 0 0 23 0 22 328 2 c180 1 409 2 510
3 l182 0 0 390 0 390 520 0 520 0 0 143 0 142 -522 0 c-516 0 -523 0 -523 20
0 20 8 20 523 23 l522 2 0 150 0 150 -178 0 c-174 0 -177 0 -187 -22 -15 -35
-76 -37 -103 -4 -19 25 -23 26 -146 26 -119 0 -126 1 -126 20 0 19 7 20 128
20 96 1 132 4 146 15 25 19 70 19 90 0 12 -12 48 -15 195 -15 l181 0 0 100 c0
93 1 100 20 100 19 0 20 -7 20 -100z m-1250 -100 l0 -30 -355 0 -355 0 0 -395
0 -395 -25 0 -25 0 0 425 0 425 380 0 380 0 0 -30z m5978 -397 l2 -423 -25 0
-25 0 0 395 0 395 -350 0 -350 0 0 30 0 30 373 -2 372 -3 3 -422z m-6188 47
c11 -11 20 -31 20 -45 0 -31 -33 -65 -62 -65 -28 0 -68 37 -68 64 0 27 39 66
67 66 13 0 32 -9 43 -20z m5700 0 c27 -27 26 -75 -2 -94 -32 -22 -55 -20 -84
9 -29 29 -26 58 8 88 27 22 53 22 78 -3z m-6510 -1097 c34 -43 14 -95 -42
-108 -34 -9 -78 31 -78 70 0 61 81 87 120 38z m7348 11 c42 -29 25 -102 -29
-119 -58 -19 -107 84 -57 119 28 20 57 20 86 0z m-7354 -590 c25 -24 24 -68
-1 -96 -36 -40 -113 -7 -113 47 0 53 77 87 114 49z m7360 0 c21 -20 20 -73 -1
-96 -20 -22 -61 -23 -91 -2 -27 18 -30 69 -5 96 20 22 76 24 97 2z m-7351
-2825 c32 -44 1 -99 -55 -99 -40 0 -68 25 -68 62 0 66 82 91 123 37z m7360 0
c32 -44 1 -99 -55 -99 -40 0 -68 25 -68 62 0 66 82 91 123 37z m-7373 -487
c46 -37 16 -112 -43 -112 -61 0 -88 63 -47 108 25 27 60 28 90 4z m7358 1 c49
-42 23 -113 -40 -113 -40 0 -68 25 -68 62 0 57 65 88 108 51z m-7352 -539 c43
-42 15 -107 -47 -107 -63 0 -91 74 -43 112 35 28 59 26 90 -5z m7356 9 c22
-20 24 -76 2 -97 -20 -21 -73 -20 -96 1 -10 9 -18 29 -18 45 0 57 70 89 112
51z m-6547 -108 c14 -13 25 -30 25 -38 0 -26 -41 -67 -66 -67 -29 0 -64 33
-64 60 0 25 42 70 65 70 9 0 27 -11 40 -25z m5703 9 c45 -31 19 -114 -36 -114
-36 0 -62 27 -62 66 0 34 28 64 60 64 9 0 26 -7 38 -16z m-5704 -357 c26 -19
24 -76 -4 -99 -30 -24 -46 -23 -75 7 -30 29 -32 58 -5 85 23 23 58 26 84 7z
m5708 -4 c39 -35 11 -103 -43 -103 -36 0 -59 24 -59 60 0 54 61 80 102 43z
m488 -519 l0 -394 -375 0 -375 0 0 25 0 25 348 2 347 3 3 367 c2 339 4 367 20
371 9 2 20 2 25 0 4 -2 7 -182 7 -399z m-6690 26 l0 -370 355 0 355 0 0 -25 0
-25 -380 0 -380 0 0 395 0 395 25 0 25 0 0 -370z m500 120 c46 -46 9 -106 -62
-101 -24 1 -51 45 -43 70 16 52 69 67 105 31z m5702 3 c18 -16 24 -59 10 -79
-17 -26 -51 -35 -80 -22 -33 16 -43 75 -17 102 21 21 63 21 87 -1z m-4642
-425 c13 -25 13 -31 0 -55 -21 -38 -81 -45 -104 -11 -9 12 -16 29 -16 38 0 9
7 26 16 38 23 34 83 27 104 -10z m802 15 c37 -33 11 -103 -39 -103 -43 0 -63
18 -63 55 0 18 7 41 16 49 20 21 63 20 86 -1z m2240 0 c37 -33 11 -103 -39
-103 -43 0 -63 18 -63 55 0 18 7 41 16 49 20 21 63 20 86 -1z m750 0 c22 -20
24 -66 2 -87 -35 -36 -104 -7 -104 42 0 54 62 81 102 45z m-1927 -35 c3 -13 3
-39 1 -58 -2 -19 -5 -47 -5 -62 -1 -21 -6 -28 -21 -28 -18 0 -20 7 -20 85 0
78 2 85 20 85 12 0 22 -8 25 -22z m-1877 -325 c50 -42 24 -123 -39 -123 -65 0
-93 80 -43 119 33 26 55 26 82 4z m797 11 c8 -4 22 -19 30 -35 28 -53 -15
-107 -76 -94 -54 12 -67 79 -23 114 28 22 42 25 69 15z m2253 -11 c32 -27 37
-64 12 -96 -26 -33 -71 -36 -100 -7 -58 58 26 155 88 103z m735 6 c30 -16 37
-28 37 -66 0 -56 -69 -84 -110 -43 -41 41 -17 103 48 119 2 1 13 -4 25 -10z"/>
<path d="M3670 8520 l0 -150 1465 0 1465 0 1 73 c1 39 2 106 3 147 l1 75
-1256 3 -1257 2 -16 -25 c-23 -35 -79 -35 -102 0 -16 25 -18 25 -160 25 l-144
0 0 -150z"/>
<path d="M5857 8322 l-728 -2 3 -138 3 -137 731 -3 732 -2 6 42 c8 58 0 242
-11 243 -4 0 -336 -1 -736 -3z"/>
<path d="M3670 8180 l0 -140 710 0 710 0 0 140 0 140 -710 0 -710 0 0 -140z"/>
<path d="M2670 6565 l0 -1395 225 0 225 0 0 1210 0 1210 985 0 985 0 0 185 0
185 -1210 0 -1210 0 0 -1395z m2170 1215 l0 -40 -420 0 -420 0 0 24 c0 13 -3
31 -6 40 -6 14 36 16 420 16 l426 0 0 -40z m-1920 -1996 l0 -335 -42 3 -43 3
-3 333 -2 332 45 0 45 0 0 -336z"/>
<path d="M5130 7775 l0 -185 840 0 840 0 0 -1210 0 -1210 225 0 225 0 0 1020
0 1020 -130 0 -130 0 0 25 0 25 130 0 130 0 0 350 0 350 -1065 0 -1065 0 0
-185z m1050 5 l0 -40 -409 0 -409 0 -4 40 -4 40 413 0 413 0 0 -40z m910
-1995 l0 -335 -43 0 -42 0 -3 325 c-2 179 0 330 3 335 3 6 24 10 46 10 l39 0
0 -335z"/>
<path d="M3200 5190 l0 -2320 945 0 945 0 0 35 c0 28 4 35 20 35 16 0 20 -7
20 -35 l0 -35 800 0 800 0 0 2320 0 2320 -1765 0 -1765 0 0 -2320z m3420 -40
l0 -2150 -1655 0 -1655 0 0 2150 0 2150 1655 0 1655 0 0 -2150z"/>
<path d="M3390 5150 l0 -2070 850 0 850 0 0 75 c0 68 2 75 20 75 16 0 20 -7
20 -37 0 -21 3 -55 6 -75 l7 -38 693 0 694 0 0 2068 0 2067 -1570 3 -1570 2 0
-2070z m2790 1749 l0 -39 -1095 0 -1095 0 0 40 0 40 1088 2 c598 2 1090 2
1095 0 4 -2 7 -21 7 -43z m-2400 -1759 l0 -1610 -30 0 -30 0 0 1610 0 1610 30
0 30 0 0 -1610z m2398 1439 l3 -36 -738 -7 c-406 -4 -898 -4 -1093 -1 l-355 7
-2 26 c-1 15 0 33 3 40 3 10 213 12 1091 10 l1088 -3 3 -36z m0 -181 l-3 -43
-1090 0 -1090 0 -3 28 c-2 16 -1 34 1 41 4 11 221 14 1097 15 l1091 2 -3 -43z
m-65 -266 c25 -22 22 -76 -5 -102 -47 -43 -118 -12 -118 53 0 66 71 94 123 49z
m-1918 -2 c25 -28 22 -80 -7 -102 -50 -38 -118 -8 -118 52 0 62 84 95 125 50z
m1114 -101 c148 -38 277 -115 388 -233 451 -474 199 -1260 -442 -1381 -114
-22 -277 -15 -385 15 -157 45 -321 151 -420 273 -266 328 -246 806 46 1101
215 218 515 301 813 225z m-1136 -1610 c30 -16 37 -28 37 -66 0 -41 -42 -77
-80 -68 -60 14 -80 88 -34 124 30 24 46 26 77 10z m1931 -10 c34 -27 35 -71 1
-104 -28 -29 -51 -31 -83 -9 -48 33 -49 94 -3 119 36 20 54 18 85 -6z m-1084
-379 l0 -40 -509 0 -509 0 -4 40 -4 40 513 0 513 0 0 -40z m1160 0 l0 -40
-410 0 -410 0 0 40 0 40 410 0 410 0 0 -40z m-2 -370 l3 -40 -1089 0 c-1193 0
-1102 -5 -1102 56 l0 24 533 2 c292 2 784 2 1092 0 l560 -2 3 -40z m-2080
-276 c47 -32 15 -124 -44 -124 -35 0 -74 37 -74 71 0 58 67 89 118 53z m2012
-4 c41 -41 10 -120 -46 -120 -33 0 -74 37 -74 68 0 60 78 94 120 52z m-440
-40 l0 -40 -570 0 -570 0 0 40 0 40 570 0 570 0 0 -40z"/>
<path d="M5024 5489 c-18 -5 -53 -24 -80 -41 -134 -92 -147 -291 -26 -400 56
-51 102 -68 181 -68 152 0 264 108 264 255 1 171 -174 302 -339 254z"/>
<path d="M2170 7095 l0 -115 210 0 210 0 0 115 0 115 -210 0 -210 0 0 -115z"/>
<path d="M7340 7095 l0 -115 265 0 265 0 0 115 0 115 -265 0 -265 0 0 -115z"/>
<path d="M2170 6545 l0 -395 100 0 c93 0 100 -1 100 -20 0 -19 -7 -20 -100
-20 l-100 0 0 -470 0 -470 210 0 210 0 0 885 0 885 -210 0 -210 0 0 -395z"/>
<path d="M7340 6055 l0 -885 105 0 105 0 0 665 0 665 30 0 30 0 0 -665 0 -665
130 0 130 0 0 470 0 469 -117 3 c-97 2 -118 6 -118 18 0 12 22 16 120 20 l120
5 -1 28 c0 15 -1 191 -2 392 l-2 365 -265 0 -265 0 0 -885z"/>
<path d="M1740 5155 l0 -955 195 0 195 0 0 455 0 455 -100 0 -100 0 0 30 0 30
100 0 100 0 0 470 0 470 -195 0 -195 0 0 -955z"/>
<path d="M7910 5640 l0 -470 105 0 105 0 0 -30 0 -30 -105 0 -105 0 0 -455 0
-455 195 0 195 0 0 945 c0 520 1 948 3 953 1 4 -87 8 -195 10 l-198 2 0 -470z"/>
<path d="M2170 4655 l0 -455 101 0 c98 0 100 0 97 -22 -3 -22 -8 -23 -100 -26
l-98 -3 0 -394 0 -395 475 0 475 0 -2 873 -3 872 -220 -2 -220 -2 -3 -706 -2
-705 -40 0 -40 0 0 710 0 710 -210 0 -210 -1 0 -454z m750 -200 l0 -345 -45 0
-45 0 0 345 0 345 45 0 45 0 0 -345z"/>
<path d="M6814 5101 c-2 -2 -4 -395 -4 -873 l0 -868 530 2 531 3 2 392 2 393
-162 0 -163 0 0 480 0 481 -102 -3 -103 -3 -3 -712 -2 -713 -40 0 -40 0 -2
712 -3 712 -218 1 c-120 0 -220 -2 -223 -4z m276 -646 l0 -345 -30 -1 c-16 -1
-35 -2 -40 -3 -7 -1 -11 116 -13 347 l-2 347 43 0 42 0 0 -345z"/>
<path d="M7610 4649 c0 -416 2 -461 16 -455 9 3 67 6 130 6 l114 0 0 455 0
455 -130 0 -130 0 0 -461z"/>
<path d="M2170 3205 l0 -115 250 0 250 0 0 -350 0 -350 1210 0 1210 0 0 200 0
200 -985 0 -985 0 -2 263 -3 262 -472 3 -473 2 0 -115z m2670 -605 l0 -40
-420 0 -420 0 0 35 0 34 98 4 c53 1 242 4 420 5 l322 2 0 -40z"/>
<path d="M6810 3055 l0 -265 -840 0 -840 0 0 -200 0 -200 1065 0 1065 0 0 350
0 350 305 0 305 0 5 23 c3 12 5 63 3 112 l-3 90 -532 3 -533 2 0 -265z m-630
-455 l0 -40 -410 0 -410 0 0 40 0 39 410 1 410 0 0 -40z"/>
<path d="M3670 2165 l0 -145 710 0 710 0 0 145 0 145 -710 0 -710 0 0 -145z"/>
<path d="M5137 2303 c-4 -3 -7 -69 -7 -145 l0 -138 734 0 735 0 3 141 c2 77 1
143 -1 145 -7 7 -1457 4 -1464 -3z"/>
</g>
</svg>
