<svg width="152" height="91" viewBox="0 0 152 91" fill="none" xmlns="http://www.w3.org/2000/svg">
<path d="M82.6877 3.36492L81.6144 3.08353C80.9632 2.91278 80.437 2.38049 80.2759 1.72929L80.0102 0.656006L79.6769 1.66439C79.494 2.21889 78.9203 2.8457 78.4024 3.05783L77.4607 3.44289L78.4007 3.72297C78.9173 3.87717 79.477 4.42645 79.6447 4.94306C79.9152 5.77895 79.9718 5.79593 80.157 5.09595C80.2715 4.66297 80.8879 4.09671 81.5264 3.8371L82.6877 3.36492Z" fill="#2AD19D"/>
<path d="M56.0311 14.3169C56.525 13.8552 56.5346 13.6435 56.0825 13.1913C55.4064 12.5153 55.3781 12.517 54.7195 13.2667C53.9407 14.1531 55.1603 15.1301 56.0311 14.3169Z" fill="#2AD19D"/>
<path d="M107.015 14.7333C107.493 14.2873 107.498 14.0791 107.046 13.6269C106.376 12.957 106.337 12.9579 105.734 13.6474C105.009 14.4776 106.204 15.4908 107.015 14.7333Z" fill="#2AD19D"/>
<path d="M76.5895 25.2667C77.428 24.571 77.5386 16.1538 76.7202 15.3353C76.4327 15.0478 76.0799 14.8126 75.9361 14.8126C74.9652 14.8126 74.6293 16.22 74.6293 20.2914C74.6293 23.7003 74.7801 24.8498 75.2827 25.2667C75.8041 25.6992 76.0681 25.6992 76.5895 25.2667Z" fill="#2AD19D"/>
<path d="M65.729 26.4362C66.0426 25.6191 63.7928 17.3094 63.1438 16.8882C62.4346 16.4282 62.1685 16.4774 61.5892 17.1756C61.1854 17.6613 61.3413 18.7703 62.3083 22.2938C63.3694 26.1618 63.6783 26.8108 64.5142 26.9306C65.0673 27.0099 65.5905 26.7973 65.729 26.4362Z" fill="#2AD19D"/>
<path d="M89.5639 22.2938C90.5309 18.7703 90.6868 17.6613 90.2831 17.1756C89.0804 15.7264 88.383 16.6656 87.0675 21.5054C85.8017 26.1636 85.8544 27.1462 87.3581 26.9306C88.194 26.8108 88.5028 26.1618 89.5639 22.2938Z" fill="#2AD19D"/>
<path d="M30.7531 21.4705L29.6354 21.19C28.9467 21.0171 28.4436 20.5332 28.3247 19.9299L28.1322 18.9507L27.8212 19.8811C27.6504 20.3929 27.0863 21.0188 26.568 21.2728L25.6258 21.7341L26.5658 22.0159C27.0824 22.171 27.633 22.7211 27.7889 23.2377C28.0529 24.1137 28.0943 24.1228 28.3957 23.3684C28.5738 22.9232 29.1771 22.3138 29.736 22.0146L30.7531 21.4705Z" fill="#2AD19D"/>
<path d="M54.0217 31.2791C55.7867 31.5391 55.5458 30.0607 53.1558 25.9736C50.7927 21.9323 49.7678 21.0877 48.9898 22.5408C48.3992 23.6446 52.6814 31.0818 54.0217 31.2791Z" fill="#2AD19D"/>
<path d="M97.8588 31.2791C99.1891 31.0848 103.641 23.2769 102.918 22.4062C102.17 21.5049 101.31 21.6378 100.61 22.7621C96.5341 29.3063 95.7998 31.5796 97.8588 31.2791Z" fill="#2AD19D"/>
<path d="M123.132 28.6721C123.609 28.2261 123.615 28.0178 123.163 27.5657C122.493 26.8958 122.453 26.8966 121.851 27.5862C121.126 28.4164 122.321 29.4296 123.132 28.6721Z" fill="#2AD19D"/>
<path d="M101.09 36.6751C97.685 34.049 91.9012 31.1319 87.4792 29.8103C84.1517 28.8158 82.5705 28.6155 77.0251 28.4865C68.3103 28.2831 63.8224 29.2689 56.8822 32.9104C47.9069 37.6195 40.9964 45.3586 37.3557 54.7777L36.1352 57.9357H18.5614C2.65554 57.9357 0.961546 58.0037 0.712826 58.6523C-0.0368192 60.6059 -2.27834 60.5492 75.5554 60.5492C122.259 60.5492 149.465 60.3942 150.175 60.1245C151.295 59.699 151.664 58.6523 150.869 58.1609C150.635 58.0167 142.628 57.9109 133.075 57.9257L115.706 57.9527L114.283 54.2715C111.769 47.7708 106.688 40.9927 101.09 36.6751Z" fill="#2AD19D"/>
<path d="M46.0592 37.6256C46.3746 36.8041 46.1629 36.5209 42.4643 32.8215C39.8399 30.1962 38.9905 29.6883 38.3306 30.3487C37.5927 31.0861 38.2709 32.2304 41.1871 35.1658C44.3391 38.3391 45.5509 38.9511 46.0592 37.6256Z" fill="#2AD19D"/>
<path d="M106.811 38.3343C107.935 38.3343 113.948 32.0732 113.761 31.0988C113.449 29.4797 112.112 29.9649 109.212 32.7479C107.634 34.2633 106.166 35.8318 105.951 36.2339C105.434 37.1978 105.9 38.3343 106.811 38.3343Z" fill="#2AD19D"/>
<path d="M140.552 38.5669C141.428 38.3029 141.437 38.2616 140.683 37.9601C140.237 37.782 139.619 37.1626 139.31 36.5837L138.746 35.5308L138.594 36.588C138.494 37.2884 138.075 37.7354 137.354 37.9131L136.265 38.1805L137.273 38.5138C137.828 38.6967 138.455 39.2704 138.667 39.7883L139.052 40.73L139.332 39.79C139.486 39.2734 140.035 38.7228 140.552 38.5669Z" fill="#2AD19D"/>
<path d="M7.54893 42.9398C7.54893 42.5983 7.83555 42.255 8.18619 42.1775C8.66752 42.0712 8.5608 41.7854 7.75061 41.011C6.96394 40.2587 6.67776 40.159 6.67776 40.6377C6.67776 40.9966 6.37938 41.4047 6.01436 41.5446C5.45245 41.7602 5.48556 41.9335 6.23215 42.6801C7.27538 43.7234 7.54893 43.7774 7.54893 42.9398Z" fill="#2AD19D"/>
<path d="M38.8655 46.8836C39.7022 45.8752 39.041 45.1673 35.2523 43.0169C31.4117 40.8372 30.3271 40.5445 29.9294 41.5803C29.5522 42.5634 29.9856 42.9659 33.9394 45.3011C38.0004 47.6999 38.1485 47.7473 38.8655 46.8836Z" fill="#2AD19D"/>
<path d="M117.949 45.2701C121.351 43.391 122.122 42.7829 122.018 42.0586C121.807 40.5806 120.35 40.8376 116.573 43.0199C112.763 45.2214 112.12 45.9558 113.123 46.9589C113.672 47.5078 114.29 47.2917 117.949 45.2701Z" fill="#2AD19D"/>
<path d="M17.6763 49.6513C17.1371 49.4317 16.6963 48.9517 16.6963 48.5845C16.6963 48.2178 16.5002 47.9172 16.2607 47.9172C16.0211 47.9172 15.8251 48.2073 15.8251 48.5623C15.8251 48.9169 15.3085 49.3372 14.6773 49.4953L13.5291 49.7837L14.5462 50.3277C15.1051 50.627 15.7084 51.2364 15.8865 51.6815C16.1879 52.436 16.2293 52.4268 16.4933 51.5509C16.6492 51.0343 17.1998 50.485 17.7164 50.3308L18.6564 50.0507L17.6763 49.6513Z" fill="#2AD19D"/>
<path d="M130.167 51.5125L129.236 51.2015C128.724 51.0308 128.116 50.4667 127.885 49.9483L127.464 49.0062L127.168 49.9392C127.004 50.4523 126.436 51.0016 125.905 51.1593L124.94 51.4463L125.93 51.8497C126.475 52.0714 127.081 52.6869 127.277 53.2179C127.629 54.1688 127.639 54.1661 127.921 53.0406C128.1 52.3284 128.577 51.8253 129.188 51.7051L130.167 51.5125Z" fill="#2AD19D"/>
<path d="M150.45 90.1539C151.444 89.6216 151.56 88.5022 150.657 88.1554C149.973 87.8928 58.3732 87.7002 22.6703 87.8862C3.8447 87.9847 0.951527 88.0857 0.733297 88.6542C0.595216 89.0144 0.724152 89.6007 1.01992 89.957C1.49166 90.5255 10.5954 90.6047 75.5824 90.6047C125.777 90.6047 149.879 90.4597 150.45 90.1539Z" fill="#2AD19D"/>
<path d="M113.63 56.3086H38.0562C40.5648 47.267 53.2022 28.2429 76.1565 28.2429C99.1108 28.2429 110.912 47.267 113.63 56.3086Z" fill="#2AD19D"/>
<path d="M104.815 56.3087H46.8711C48.7945 49.3763 58.4838 34.7903 76.0832 34.7903C93.6826 34.7903 102.731 49.3763 104.815 56.3087Z" fill="white"/>
<path d="M13.6151 63.5906V83.6599H9.97949V63.5906H13.6151ZM26.3081 63.5906L31.5312 79.3873H31.737L36.9503 63.5906H40.9485L33.8733 83.6599H29.3851L22.3197 63.5906H26.3081ZM66.518 73.6252C66.518 75.7877 66.1129 77.6398 65.3028 79.1816C64.4993 80.7168 63.4017 81.8927 62.0102 82.7094C60.6252 83.526 59.054 83.9343 57.2967 83.9343C55.5393 83.9343 53.9648 83.526 52.5733 82.7094C51.1883 81.8862 50.0908 80.707 49.2807 79.1718C48.4771 77.63 48.0754 75.7811 48.0754 73.6252C48.0754 71.4628 48.4771 69.614 49.2807 68.0787C50.0908 66.537 51.1883 65.3578 52.5733 64.5411C53.9648 63.7245 55.5393 63.3162 57.2967 63.3162C59.054 63.3162 60.6252 63.7245 62.0102 64.5411C63.4017 65.3578 64.4993 66.537 65.3028 68.0787C66.1129 69.614 66.518 71.4628 66.518 73.6252ZM62.8628 73.6252C62.8628 72.1031 62.6243 70.8193 62.1474 69.7741C61.677 68.7222 61.0237 67.9285 60.1875 67.3928C59.3513 66.8505 58.3877 66.5794 57.2967 66.5794C56.2057 66.5794 55.242 66.8505 54.4058 67.3928C53.5696 67.9285 52.913 68.7222 52.4361 69.7741C51.9658 70.8193 51.7306 72.1031 51.7306 73.6252C51.7306 75.1474 51.9658 76.4344 52.4361 77.4862C52.913 78.5315 53.5696 79.3253 54.4058 79.8675C55.242 80.4032 56.2057 80.6711 57.2967 80.6711C58.3877 80.6711 59.3513 80.4032 60.1875 79.8675C61.0237 79.3253 61.677 78.5315 62.1474 77.4862C62.6243 76.4344 62.8628 75.1474 62.8628 73.6252ZM92.5186 63.5906V83.6599H89.2848L79.8283 69.9896H79.6617V83.6599H76.0261V63.5906H79.2795L88.7262 77.2707H88.9026V63.5906H92.5186ZM119.044 63.5906V83.6599H115.81L106.353 69.9896H106.187V83.6599H102.551V63.5906H105.804L115.251 77.2707H115.428V63.5906H119.044ZM129.076 83.6599V63.5906H142.129V66.6382H132.712V72.0867H141.453V75.1344H132.712V80.6123H142.207V83.6599H129.076Z" fill="#2AD19D"/>
</svg>
